<?xml version="1.0" encoding="UTF-8" standalone="no"?>
<!-- Created with Inkscape (http://www.inkscape.org/) -->

<svg
   width="10mm"
   height="10mm"
   viewBox="0 0 10 10"
   version="1.1"
   id="svg1"
   sodipodi:docname="teaching.svg"
   inkscape:version="1.3 (0e150ed6c4, 2023-07-21)"
   xmlns:inkscape="http://www.inkscape.org/namespaces/inkscape"
   xmlns:sodipodi="http://sodipodi.sourceforge.net/DTD/sodipodi-0.dtd"
   xmlns="http://www.w3.org/2000/svg"
   xmlns:svg="http://www.w3.org/2000/svg">
  <sodipodi:namedview
     id="namedview1"
     pagecolor="#ffffff"
     bordercolor="#000000"
     borderopacity="0.25"
     inkscape:showpageshadow="2"
     inkscape:pageopacity="0.0"
     inkscape:pagecheckerboard="0"
     inkscape:deskcolor="#d1d1d1"
     inkscape:document-units="mm"
     inkscape:zoom="12.064384"
     inkscape:cx="25.488246"
     inkscape:cy="39.993752"
     inkscape:window-width="2560"
     inkscape:window-height="1403"
     inkscape:window-x="0"
     inkscape:window-y="0"
     inkscape:window-maximized="1"
     inkscape:current-layer="layer1" />
  <defs
     id="defs1" />
  <g
     inkscape:label="Layer 1"
     inkscape:groupmode="layer"
     id="layer1"
     transform="translate(-96.043747,-123.29584)">
    <circle
       style="fill:#d0ebff;fill-opacity:1;stroke-width:0.223681"
       id="path1-0-5"
       cx="101.04375"
       cy="128.29584"
       r="5" />
    <ellipse
       style="font-variation-settings:normal;vector-effect:none;fill:none;fill-opacity:1;stroke:#1864ab;stroke-width:0.825997;stroke-linecap:butt;stroke-linejoin:miter;stroke-miterlimit:4;stroke-dasharray:none;stroke-dashoffset:0;stroke-opacity:1;-inkscape-stroke:none;stop-color:#000000"
       id="path3-4"
       cx="101.04379"
       cy="126.98713"
       rx="1.0635556"
       ry="1.0596035" />
    <path
       id="path4-7"
       style="font-variation-settings:normal;vector-effect:none;fill:none;fill-opacity:1;stroke:#1864ab;stroke-width:0.825999;stroke-linecap:butt;stroke-linejoin:miter;stroke-miterlimit:4;stroke-dasharray:none;stroke-dashoffset:0;stroke-opacity:1;-inkscape-stroke:none"
       d="m 103.05187,131.07712 c 3e-5,-1.07227 -0.89894,-1.94157 -2.00797,-1.9417 -1.109152,-3e-5 -2.008303,0.86932 -2.008275,1.9417"
       sodipodi:nodetypes="ccc" />
    <path
       id="circle4"
       style="color:#000000;fill:#1864ab;-inkscape-stroke:none"
       d="M 103.76162 126.20884 C 103.2064 126.20884 102.74618 126.66481 102.74618 127.22067 C 102.74618 127.77653 103.2064 128.23456 103.76162 128.23456 C 104.31684 128.23456 104.77913 127.77653 104.77913 127.22067 C 104.77913 126.66481 104.31684 126.20884 103.76162 126.20884 z " />
    <path
       id="path5"
       style="font-variation-settings:normal;vector-effect:none;fill:none;fill-opacity:1;stroke:#1864ab;stroke-width:0.825997;stroke-linecap:butt;stroke-linejoin:miter;stroke-miterlimit:4;stroke-dasharray:none;stroke-dashoffset:0;stroke-opacity:1;-inkscape-stroke:none"
       d="m 104.90158,129.87743 c 2e-5,-0.60724 -0.51004,-1.09953 -1.13929,-1.09961 -0.62932,-1e-5 -1.13948,0.49231 -1.13946,1.09961"
       sodipodi:nodetypes="ccc" />
    <path
       id="circle5"
       style="color:#000000;fill:#1864ab;-inkscape-stroke:none"
       d="M 98.326295 126.20884 C 97.771072 126.20884 97.308786 126.66481 97.308786 127.22067 C 97.308786 127.77653 97.771072 128.23456 98.326295 128.23456 C 98.881518 128.23456 99.341737 127.77653 99.341737 127.22067 C 99.341737 126.66481 98.881518 126.20884 98.326295 126.20884 z " />
    <path
       id="path6"
       style="font-variation-settings:normal;vector-effect:none;fill:none;fill-opacity:1;stroke:#1864ab;stroke-width:0.825997;stroke-linecap:butt;stroke-linejoin:miter;stroke-miterlimit:4;stroke-dasharray:none;stroke-dashoffset:0;stroke-opacity:1;-inkscape-stroke:none"
       d="m 99.464673,129.87743 c 1.5e-5,-0.60724 -0.510046,-1.09953 -1.139295,-1.09961 -0.629313,-1e-5 -1.139478,0.49231 -1.139462,1.09961"
       sodipodi:nodetypes="ccc" />
  </g>
</svg>
